<svg xmlns="http://www.w3.org/2000/svg" width="1969.5" height="56.9" viewBox="0 0 1969.5 56.9">
  <g id="Group_133" data-name="Group 133" transform="translate(-568 -64)">
    <path id="Path_77" data-name="Path 77" d="M254.5,91.4h-7.9V85.9H268v5.5h-7.8V115h-5.7Z" transform="translate(378.8 -21.3)" fill="#fff"/>
    <path id="Path_78" data-name="Path 78" d="M286.8,115l-4.8-8.1h-5.3V115H271V85.9h10.7a11.434,11.434,0,0,1,5.7,1.3,9.4,9.4,0,0,1,3.7,3.7,11.3,11.3,0,0,1,1.3,5.6,11.046,11.046,0,0,1-1.3,5.6,8.567,8.567,0,0,1-3.7,3.6l5.5,9.4h-6.1Zm-1.4-22.3a5.262,5.262,0,0,0-3.9-1.3h-4.6v10.2h4.6a5.262,5.262,0,0,0,3.9-1.3,4.924,4.924,0,0,0,1.3-3.7,5.113,5.113,0,0,0-1.3-3.9" transform="translate(378.8 -21.3)" fill="#fff"/>
    <path id="Path_79" data-name="Path 79" d="M313.2,108.8H301.8l-2.2,6.2h-5.8l11-29.2h5.6l11,29.2h-6Zm-1.8-5.1-3.9-11.2-3.9,11.2Z" transform="translate(378.8 -21.3)" fill="#fff"/>
    <path id="Path_80" data-name="Path 80" d="M346.3,85.9,335.6,115H330L319.4,85.9h6.1l7.5,20.8,7.6-20.8Z" transform="translate(378.8 -21.3)" fill="#fff"/>
    <path id="Path_81" data-name="Path 81" d="M350.8,114.6a12.281,12.281,0,0,1-4.4-2.4l1.9-5.1a11.853,11.853,0,0,0,3.8,2.2,11.4,11.4,0,0,0,4.4.8,5.968,5.968,0,0,0,3.6-.9,2.676,2.676,0,0,0,1.2-2.3,2.06,2.06,0,0,0-.7-1.7,4.583,4.583,0,0,0-1.8-1.1,20.479,20.479,0,0,0-2.9-.9,34.071,34.071,0,0,1-4.6-1.6,8.184,8.184,0,0,1-3.1-2.5,7.491,7.491,0,0,1-1.3-4.7,9.022,9.022,0,0,1,1.2-4.6,8.007,8.007,0,0,1,3.5-3.3,12.611,12.611,0,0,1,5.7-1.2,14.264,14.264,0,0,1,4.6.7,11.819,11.819,0,0,1,3.9,1.9L364,93a12.585,12.585,0,0,0-6.8-2.3,5.443,5.443,0,0,0-3.5.9,2.767,2.767,0,0,0-1.1,2.4,2.308,2.308,0,0,0,1.3,2.2,15.041,15.041,0,0,0,4,1.4,34.071,34.071,0,0,1,4.6,1.6,8.184,8.184,0,0,1,3.1,2.5,7.187,7.187,0,0,1,1.3,4.6,9.022,9.022,0,0,1-1.2,4.6,8.584,8.584,0,0,1-3.5,3.3,12.611,12.611,0,0,1-5.7,1.2,15.449,15.449,0,0,1-5.7-.8" transform="translate(378.8 -21.3)" fill="#288ecb"/>
    <path id="Path_82" data-name="Path 82" d="M375.8,113.6a12.589,12.589,0,0,1-4.8-5.4,16.43,16.43,0,0,1-1.7-7.7,17.429,17.429,0,0,1,1.7-7.7,14.015,14.015,0,0,1,4.8-5.4,12.9,12.9,0,0,1,6.9-2,12.412,12.412,0,0,1,6.9,2,14.014,14.014,0,0,1,4.8,5.4,16.488,16.488,0,0,1,1.8,7.7,16.2,16.2,0,0,1-1.8,7.7,14.015,14.015,0,0,1-4.8,5.4,12.412,12.412,0,0,1-6.9,2,13.848,13.848,0,0,1-6.9-2m10.9-5a8.254,8.254,0,0,0,2.8-3.3,12.02,12.02,0,0,0,0-9.6,8.254,8.254,0,0,0-2.8-3.3,6.894,6.894,0,0,0-3.9-1.2,6.452,6.452,0,0,0-3.9,1.2,8.254,8.254,0,0,0-2.8,3.3,12.02,12.02,0,0,0,0,9.6,8.254,8.254,0,0,0,2.8,3.3,6.937,6.937,0,0,0,7.8,0" transform="translate(378.8 -21.3)" fill="#288ecb"/>
    <path id="Path_83" data-name="Path 83" d="M400.5,85.9h5.7v23.6h12.4V115H400.5Z" transform="translate(378.8 -21.3)" fill="#288ecb"/>
    <path id="Path_84" data-name="Path 84" d="M254.2,120.7H259a4.648,4.648,0,0,1,2.1.5,4.708,4.708,0,0,1,1.5,1.3,3.308,3.308,0,0,1,0,3.8,3.738,3.738,0,0,1-1.5,1.3,4.99,4.99,0,0,1-2.1.5h-3.1V132h-1.7Zm4.6,5.8a3.173,3.173,0,0,0,2-.6,2,2,0,0,0,0-3.2,3.173,3.173,0,0,0-2-.6h-2.9v4.3h2.9Z" transform="translate(378.8 -21.3)" fill="#fff"/>
    <path id="Path_85" data-name="Path 85" d="M270.8,131.4a6.61,6.61,0,0,1-2.2-2.2,5.1,5.1,0,0,1-.8-2.9,6.026,6.026,0,0,1,.8-2.9,5.558,5.558,0,0,1,2.2-2.1,5.78,5.78,0,0,1,7.9,2.1,5.736,5.736,0,0,1,.8,2.9,6.026,6.026,0,0,1-.8,2.9,7.349,7.349,0,0,1-2.1,2.2,6.026,6.026,0,0,1-2.9.8A5.736,5.736,0,0,1,270.8,131.4Zm5-1.3a4.629,4.629,0,0,0,1.5-1.6,4.282,4.282,0,0,0,.6-2.2,3.7,3.7,0,0,0-.6-2.1,5.724,5.724,0,0,0-1.5-1.6,3.7,3.7,0,0,0-2.1-.6,3.936,3.936,0,0,0-2.1.6,3.86,3.86,0,0,0-1.5,1.6,5.562,5.562,0,0,0-.6,2.1,4.282,4.282,0,0,0,.6,2.2,4.629,4.629,0,0,0,1.5,1.6,3.7,3.7,0,0,0,2.1.6A3.936,3.936,0,0,0,275.8,130.1Z" transform="translate(378.8 -21.3)" fill="#fff"/>
    <path id="Path_86" data-name="Path 86" d="M284.9,120.7h1.7V132h-1.7Z" transform="translate(378.8 -21.3)" fill="#fff"/>
    <path id="Path_87" data-name="Path 87" d="M292.6,120.7h1.7l6.5,8.6v-8.6h1.7V132h-1.7l-6.5-8.6V132h-1.7Z" transform="translate(378.8 -21.3)" fill="#fff"/>
    <path id="Path_88" data-name="Path 88" d="M311.6,122.2h-3.7v-1.6H317v1.6h-3.7V132h-1.7v-9.8Z" transform="translate(378.8 -21.3)" fill="#fff"/>
    <path id="Path_89" data-name="Path 89" d="M332.7,131.4a6.61,6.61,0,0,1-2.2-2.2,5.656,5.656,0,0,1,0-5.8,5.558,5.558,0,0,1,2.2-2.1,5.78,5.78,0,0,1,7.9,2.1,5.736,5.736,0,0,1,.8,2.9,6.026,6.026,0,0,1-.8,2.9,7.349,7.349,0,0,1-2.1,2.2,5.656,5.656,0,0,1-5.8,0Zm5-1.3a4.629,4.629,0,0,0,1.5-1.6,4.282,4.282,0,0,0,.6-2.2,3.7,3.7,0,0,0-.6-2.1,5.724,5.724,0,0,0-1.5-1.6,3.7,3.7,0,0,0-2.1-.6,4.2,4.2,0,0,0-2.1.6,3.86,3.86,0,0,0-1.5,1.6,5.562,5.562,0,0,0-.6,2.1,4.282,4.282,0,0,0,.6,2.2,4.629,4.629,0,0,0,1.5,1.6,3.975,3.975,0,0,0,4.2,0Z" transform="translate(378.8 -21.3)" fill="#fff"/>
    <path id="Path_90" data-name="Path 90" d="M348.6,122.2v3.3h6v1.6h-6V132h-1.7V120.7h8.3v1.6h-6.6Z" transform="translate(378.8 -21.3)" fill="#fff"/>
    <path id="Path_91" data-name="Path 91" d="M367.8,130.4l1-1.2a5.168,5.168,0,0,0,3.7,1.6,3.453,3.453,0,0,0,1.8-.5,1.426,1.426,0,0,0,.6-1.2,1.306,1.306,0,0,0-.7-1.2,8.659,8.659,0,0,0-2.2-.8,7.319,7.319,0,0,1-2.1-.7,4.485,4.485,0,0,1-1.3-1,2.767,2.767,0,0,1-.5-1.6,3.371,3.371,0,0,1,.5-1.7,3.325,3.325,0,0,1,1.4-1.2,4.477,4.477,0,0,1,2-.4,5.867,5.867,0,0,1,2.3.4,7.607,7.607,0,0,1,1.9,1.2l-1,1.3a5.372,5.372,0,0,0-1.6-1,5.257,5.257,0,0,0-1.7-.4,3.6,3.6,0,0,0-1.1.2,2.406,2.406,0,0,0-.8.6,1.33,1.33,0,0,0-.3.8,1.136,1.136,0,0,0,.3.8,3.49,3.49,0,0,0,.9.6c.4.1.9.3,1.6.5a7.9,7.9,0,0,1,2.9,1.2,2.658,2.658,0,0,1,1,2.1,3.371,3.371,0,0,1-.5,1.7,3.325,3.325,0,0,1-1.4,1.2,5.087,5.087,0,0,1-2.2.4A5.936,5.936,0,0,1,367.8,130.4Z" transform="translate(378.8 -21.3)" fill="#fff"/>
    <path id="Path_92" data-name="Path 92" d="M389.9,129.7H384l-1,2.3h-1.8l4.9-11.3H388l4.9,11.3h-1.8Zm-.7-1.5-2.3-5.4-2.3,5.4Z" transform="translate(378.8 -21.3)" fill="#fff"/>
    <path id="Path_93" data-name="Path 93" d="M405.3,130.5v1.6h-7.7V120.8h1.7v9.8h6Z" transform="translate(378.8 -21.3)" fill="#fff"/>
    <path id="Path_94" data-name="Path 94" d="M412,122.2v3.2h6V127h-6v3.5h6.7v1.6h-8.3V120.8h8.3v1.6H412Z" transform="translate(378.8 -21.3)" fill="#fff"/>
    <path id="Path_95" data-name="Path 95" d="M232.3,133.1H194.906a5.68,5.68,0,0,1-5.706-5.673V91.873a5.68,5.68,0,0,1,5.706-5.673H232.3A5.68,5.68,0,0,1,238,91.873v35.555A5.68,5.68,0,0,1,232.3,133.1" transform="translate(378.8 -22.2)" fill="#fff"/>
    <path id="Path_96" data-name="Path 96" d="M220.9,93.2H205.4a4.268,4.268,0,0,0-4.3,4.3v23.8a4.268,4.268,0,0,0,4.3,4.3h15.5a4.268,4.268,0,0,0,4.3-4.3V97.4A4.247,4.247,0,0,0,220.9,93.2Zm2.1,28a2.051,2.051,0,0,1-2.1,2.1H205.4a2.051,2.051,0,0,1-2.1-2.1V97.4a2.051,2.051,0,0,1,2.1-2.1h15.5a2.051,2.051,0,0,1,2.1,2.1Z" transform="translate(379.252 -21.6)" fill="#288ecb"/>
    <path id="Path_97" data-name="Path 97" d="M218,103.8h-9.7a3.116,3.116,0,0,0-3.1,3.1v1.7a3.116,3.116,0,0,0,3.1,3.1H218a3.116,3.116,0,0,0,3.1-3.1v-1.7A3.116,3.116,0,0,0,218,103.8Zm1.2,4.8a1.155,1.155,0,0,1-1.2,1.2h-9.7a1.155,1.155,0,0,1-1.2-1.2v-1.7a1.155,1.155,0,0,1,1.2-1.2H218a1.155,1.155,0,0,1,1.2,1.2Z" transform="translate(379.252 -21.6)" fill="#288ecb"/>
    <path id="Path_98" data-name="Path 98" d="M218.2,95.3a5.678,5.678,0,0,0-.7-2.2h-3a2.986,2.986,0,0,1,1.5,2.2v.4a2.9,2.9,0,1,1-5.8,0v-.4a3.09,3.09,0,0,1,1.5-2.2h-3a5.187,5.187,0,0,0-.7,2.2v.4a5.1,5.1,0,0,0,10.2,0C218.2,95.6,218.2,95.4,218.2,95.3Z" transform="translate(379.302 -21.5)" fill="#288ecb"/>
    <circle id="Ellipse_1" data-name="Ellipse 1" cx="1" cy="1" r="1" transform="translate(586.352 92.8)" fill="#288ecb"/>
    <circle id="Ellipse_2" data-name="Ellipse 2" cx="1" cy="1" r="1" transform="translate(591.352 92.8)" fill="#288ecb"/>
    <circle id="Ellipse_3" data-name="Ellipse 3" cx="1" cy="1" r="1" transform="translate(596.452 92.8)" fill="#288ecb"/>
    <circle id="Ellipse_4" data-name="Ellipse 4" cx="1" cy="1" r="1" transform="translate(596.452 96.8)" fill="#288ecb"/>
    <circle id="Ellipse_5" data-name="Ellipse 5" cx="1" cy="1" r="1" transform="translate(586.352 96.8)" fill="#288ecb"/>
    <circle id="Ellipse_6" data-name="Ellipse 6" cx="1" cy="1" r="1" transform="translate(591.352 96.8)" fill="#288ecb"/>
    <g id="Group_132" data-name="Group 132" transform="translate(1424)">
      <path id="Path_77-2" data-name="Path 77" d="M254.5,91.4h-7.9V85.9H268v5.5h-7.8V115h-5.7Z" transform="translate(694.8 -11.3)" fill="#17486a"/>
      <path id="Path_78-2" data-name="Path 78" d="M286.8,115l-4.8-8.1h-5.3V115H271V85.9h10.7a11.434,11.434,0,0,1,5.7,1.3,9.4,9.4,0,0,1,3.7,3.7,11.3,11.3,0,0,1,1.3,5.6,11.046,11.046,0,0,1-1.3,5.6,8.567,8.567,0,0,1-3.7,3.6l5.5,9.4h-6.1Zm-1.4-22.3a5.262,5.262,0,0,0-3.9-1.3h-4.6v10.2h4.6a5.262,5.262,0,0,0,3.9-1.3,4.924,4.924,0,0,0,1.3-3.7,5.113,5.113,0,0,0-1.3-3.9" transform="translate(694.8 -11.3)" fill="#17486a"/>
      <path id="Path_79-2" data-name="Path 79" d="M313.2,108.8H301.8l-2.2,6.2h-5.8l11-29.2h5.6l11,29.2h-6Zm-1.8-5.1-3.9-11.2-3.9,11.2Z" transform="translate(694.8 -11.3)" fill="#17486a"/>
      <path id="Path_80-2" data-name="Path 80" d="M346.3,85.9,335.6,115H330L319.4,85.9h6.1l7.5,20.8,7.6-20.8Z" transform="translate(694.8 -11.3)" fill="#17486a"/>
      <path id="Path_81-2" data-name="Path 81" d="M350.8,114.6a12.281,12.281,0,0,1-4.4-2.4l1.9-5.1a11.853,11.853,0,0,0,3.8,2.2,11.4,11.4,0,0,0,4.4.8,5.968,5.968,0,0,0,3.6-.9,2.676,2.676,0,0,0,1.2-2.3,2.06,2.06,0,0,0-.7-1.7,4.583,4.583,0,0,0-1.8-1.1,20.479,20.479,0,0,0-2.9-.9,34.071,34.071,0,0,1-4.6-1.6,8.184,8.184,0,0,1-3.1-2.5,7.491,7.491,0,0,1-1.3-4.7,9.022,9.022,0,0,1,1.2-4.6,8.007,8.007,0,0,1,3.5-3.3,12.611,12.611,0,0,1,5.7-1.2,14.264,14.264,0,0,1,4.6.7,11.819,11.819,0,0,1,3.9,1.9L364,93a12.585,12.585,0,0,0-6.8-2.3,5.443,5.443,0,0,0-3.5.9,2.767,2.767,0,0,0-1.1,2.4,2.308,2.308,0,0,0,1.3,2.2,15.041,15.041,0,0,0,4,1.4,34.071,34.071,0,0,1,4.6,1.6,8.184,8.184,0,0,1,3.1,2.5,7.187,7.187,0,0,1,1.3,4.6,9.022,9.022,0,0,1-1.2,4.6,8.584,8.584,0,0,1-3.5,3.3,12.611,12.611,0,0,1-5.7,1.2,15.449,15.449,0,0,1-5.7-.8" transform="translate(694.8 -11.3)" fill="#288ecb"/>
      <path id="Path_82-2" data-name="Path 82" d="M375.8,113.6a12.589,12.589,0,0,1-4.8-5.4,16.43,16.43,0,0,1-1.7-7.7,17.429,17.429,0,0,1,1.7-7.7,14.015,14.015,0,0,1,4.8-5.4,12.9,12.9,0,0,1,6.9-2,12.412,12.412,0,0,1,6.9,2,14.014,14.014,0,0,1,4.8,5.4,16.488,16.488,0,0,1,1.8,7.7,16.2,16.2,0,0,1-1.8,7.7,14.015,14.015,0,0,1-4.8,5.4,12.412,12.412,0,0,1-6.9,2,13.848,13.848,0,0,1-6.9-2m10.9-5a8.254,8.254,0,0,0,2.8-3.3,12.02,12.02,0,0,0,0-9.6,8.254,8.254,0,0,0-2.8-3.3,6.894,6.894,0,0,0-3.9-1.2,6.452,6.452,0,0,0-3.9,1.2,8.254,8.254,0,0,0-2.8,3.3,12.02,12.02,0,0,0,0,9.6,8.254,8.254,0,0,0,2.8,3.3,6.937,6.937,0,0,0,7.8,0" transform="translate(694.8 -11.3)" fill="#288ecb"/>
      <path id="Path_83-2" data-name="Path 83" d="M400.5,85.9h5.7v23.6h12.4V115H400.5Z" transform="translate(694.8 -11.3)" fill="#288ecb"/>
      <path id="Path_84-2" data-name="Path 84" d="M254.2,120.7H259a4.648,4.648,0,0,1,2.1.5,4.708,4.708,0,0,1,1.5,1.3,3.308,3.308,0,0,1,0,3.8,3.738,3.738,0,0,1-1.5,1.3,4.99,4.99,0,0,1-2.1.5h-3.1V132h-1.7Zm4.6,5.8a3.173,3.173,0,0,0,2-.6,2,2,0,0,0,0-3.2,3.173,3.173,0,0,0-2-.6h-2.9v4.3h2.9Z" transform="translate(694.8 -11.3)" fill="#288ecb"/>
      <path id="Path_85-2" data-name="Path 85" d="M270.8,131.4a6.61,6.61,0,0,1-2.2-2.2,5.1,5.1,0,0,1-.8-2.9,6.026,6.026,0,0,1,.8-2.9,5.558,5.558,0,0,1,2.2-2.1,5.78,5.78,0,0,1,7.9,2.1,5.736,5.736,0,0,1,.8,2.9,6.026,6.026,0,0,1-.8,2.9,7.349,7.349,0,0,1-2.1,2.2,6.026,6.026,0,0,1-2.9.8A5.736,5.736,0,0,1,270.8,131.4Zm5-1.3a4.629,4.629,0,0,0,1.5-1.6,4.282,4.282,0,0,0,.6-2.2,3.7,3.7,0,0,0-.6-2.1,5.724,5.724,0,0,0-1.5-1.6,3.7,3.7,0,0,0-2.1-.6,3.936,3.936,0,0,0-2.1.6,3.86,3.86,0,0,0-1.5,1.6,5.562,5.562,0,0,0-.6,2.1,4.282,4.282,0,0,0,.6,2.2,4.629,4.629,0,0,0,1.5,1.6,3.7,3.7,0,0,0,2.1.6A3.936,3.936,0,0,0,275.8,130.1Z" transform="translate(694.8 -11.3)" fill="#288ecb"/>
      <path id="Path_87-2" data-name="Path 87" d="M292.6,120.7h1.7l6.5,8.6v-8.6h1.7V132h-1.7l-6.5-8.6V132h-1.7Z" transform="translate(694.8 -11.3)" fill="#288ecb"/>
      <path id="Path_88-2" data-name="Path 88" d="M311.6,122.2h-3.7v-1.6H317v1.6h-3.7V132h-1.7v-9.8Z" transform="translate(694.8 -11.3)" fill="#288ecb"/>
      <path id="Path_89-2" data-name="Path 89" d="M332.7,131.4a6.61,6.61,0,0,1-2.2-2.2,5.656,5.656,0,0,1,0-5.8,5.558,5.558,0,0,1,2.2-2.1,5.78,5.78,0,0,1,7.9,2.1,5.736,5.736,0,0,1,.8,2.9,6.026,6.026,0,0,1-.8,2.9,7.349,7.349,0,0,1-2.1,2.2,5.656,5.656,0,0,1-5.8,0Zm5-1.3a4.629,4.629,0,0,0,1.5-1.6,4.282,4.282,0,0,0,.6-2.2,3.7,3.7,0,0,0-.6-2.1,5.724,5.724,0,0,0-1.5-1.6,3.7,3.7,0,0,0-2.1-.6,4.2,4.2,0,0,0-2.1.6,3.86,3.86,0,0,0-1.5,1.6,5.562,5.562,0,0,0-.6,2.1,4.282,4.282,0,0,0,.6,2.2,4.629,4.629,0,0,0,1.5,1.6,3.975,3.975,0,0,0,4.2,0Z" transform="translate(694.8 -11.3)" fill="#288ecb"/>
      <path id="Path_90-2" data-name="Path 90" d="M348.6,122.2v3.3h6v1.6h-6V132h-1.7V120.7h8.3v1.6h-6.6Z" transform="translate(694.8 -11.3)" fill="#288ecb"/>
      <path id="Path_91-2" data-name="Path 91" d="M367.8,130.4l1-1.2a5.168,5.168,0,0,0,3.7,1.6,3.453,3.453,0,0,0,1.8-.5,1.426,1.426,0,0,0,.6-1.2,1.306,1.306,0,0,0-.7-1.2,8.659,8.659,0,0,0-2.2-.8,7.319,7.319,0,0,1-2.1-.7,4.485,4.485,0,0,1-1.3-1,2.767,2.767,0,0,1-.5-1.6,3.371,3.371,0,0,1,.5-1.7,3.325,3.325,0,0,1,1.4-1.2,4.477,4.477,0,0,1,2-.4,5.867,5.867,0,0,1,2.3.4,7.607,7.607,0,0,1,1.9,1.2l-1,1.3a5.372,5.372,0,0,0-1.6-1,5.257,5.257,0,0,0-1.7-.4,3.6,3.6,0,0,0-1.1.2,2.406,2.406,0,0,0-.8.6,1.33,1.33,0,0,0-.3.8,1.136,1.136,0,0,0,.3.8,3.49,3.49,0,0,0,.9.6c.4.1.9.3,1.6.5a7.9,7.9,0,0,1,2.9,1.2,2.658,2.658,0,0,1,1,2.1,3.371,3.371,0,0,1-.5,1.7,3.325,3.325,0,0,1-1.4,1.2,5.087,5.087,0,0,1-2.2.4A5.936,5.936,0,0,1,367.8,130.4Z" transform="translate(694.8 -11.3)" fill="#288ecb"/>
      <path id="Path_92-2" data-name="Path 92" d="M389.9,129.7H384l-1,2.3h-1.8l4.9-11.3H388l4.9,11.3h-1.8Zm-.7-1.5-2.3-5.4-2.3,5.4Z" transform="translate(694.8 -11.3)" fill="#288ecb"/>
      <path id="Path_93-2" data-name="Path 93" d="M405.3,130.5v1.6h-7.7V120.8h1.7v9.8h6Z" transform="translate(694.8 -11.3)" fill="#288ecb"/>
      <path id="Path_94-2" data-name="Path 94" d="M412,122.2v3.2h6V127h-6v3.5h6.7v1.6h-8.3V120.8h8.3v1.6H412Z" transform="translate(694.8 -11.3)" fill="#288ecb"/>
      <path id="Path_95-2" data-name="Path 95" d="M232.3,133.1H194.906a5.68,5.68,0,0,1-5.706-5.673V91.873a5.68,5.68,0,0,1,5.706-5.673H232.3A5.68,5.68,0,0,1,238,91.873v35.555A5.68,5.68,0,0,1,232.3,133.1" transform="translate(694.8 -12.2)" fill="#288ecb"/>
      <path id="Path_96-2" data-name="Path 96" d="M220.9,93.2H205.4a4.268,4.268,0,0,0-4.3,4.3v23.8a4.268,4.268,0,0,0,4.3,4.3h15.5a4.268,4.268,0,0,0,4.3-4.3V97.4A4.247,4.247,0,0,0,220.9,93.2Zm2.1,28a2.051,2.051,0,0,1-2.1,2.1H205.4a2.051,2.051,0,0,1-2.1-2.1V97.4a2.051,2.051,0,0,1,2.1-2.1h15.5a2.051,2.051,0,0,1,2.1,2.1Z" transform="translate(695.251 -11.6)" fill="#fff"/>
      <path id="Path_97-2" data-name="Path 97" d="M218,103.8h-9.7a3.116,3.116,0,0,0-3.1,3.1v1.7a3.116,3.116,0,0,0,3.1,3.1H218a3.116,3.116,0,0,0,3.1-3.1v-1.7A3.116,3.116,0,0,0,218,103.8Zm1.2,4.8a1.155,1.155,0,0,1-1.2,1.2h-9.7a1.155,1.155,0,0,1-1.2-1.2v-1.7a1.155,1.155,0,0,1,1.2-1.2H218a1.155,1.155,0,0,1,1.2,1.2Z" transform="translate(695.251 -11.6)" fill="#fff"/>
      <path id="Path_98-2" data-name="Path 98" d="M218.2,95.3a5.678,5.678,0,0,0-.7-2.2h-3a2.986,2.986,0,0,1,1.5,2.2v.4a2.9,2.9,0,1,1-5.8,0v-.4a3.09,3.09,0,0,1,1.5-2.2h-3a5.187,5.187,0,0,0-.7,2.2v.4a5.1,5.1,0,0,0,10.2,0C218.2,95.6,218.2,95.4,218.2,95.3Z" transform="translate(695.302 -11.5)" fill="#fff"/>
      <circle id="Ellipse_1-2" data-name="Ellipse 1" cx="1" cy="1" r="1" transform="translate(902.352 102.8)" fill="#fff"/>
      <circle id="Ellipse_2-2" data-name="Ellipse 2" cx="1" cy="1" r="1" transform="translate(907.352 102.8)" fill="#fff"/>
      <circle id="Ellipse_3-2" data-name="Ellipse 3" cx="1" cy="1" r="1" transform="translate(912.452 102.8)" fill="#fff"/>
      <circle id="Ellipse_4-2" data-name="Ellipse 4" cx="1" cy="1" r="1" transform="translate(912.452 106.8)" fill="#fff"/>
      <circle id="Ellipse_5-2" data-name="Ellipse 5" cx="1" cy="1" r="1" transform="translate(902.352 106.8)" fill="#fff"/>
      <circle id="Ellipse_6-2" data-name="Ellipse 6" cx="1" cy="1" r="1" transform="translate(907.352 106.8)" fill="#fff"/>
    </g>
  </g>
</svg>
